# xmcd CD database file
#
# Track frame offsets:
#	150
#	18879
#	31503
#	54414
#	71928
#	96635
#	134517
#	148645
#	171593
#	175830
#	190081
#	216879
#	247391
#	291908
#	314108
#
# Disc length: 4431 seconds
#
# Revision: 2
# Processed by: cddbd v1.5.2PL0 Copyright (c) Steve Scherf et al.
# Submitted via: CDex 1.51
#
DISCID=f2114d0f
DTITLE=Mate.o i Piotr Plecha - Przelom vol.7
DYEAR=2008
DGENRE=Worship
TTITLE0=Niepojety
TTITLE1=Nie boj sie ziemio Polska-improwizacja
TTITLE2=Swiety, Swiety, Swiety
TTITLE3=Te deum
TTITLE4=Jak wielki jest Bog
TTITLE5=Niepojeta laska
TTITLE6=Jezeli jestes glodny to wolaj-improwizacja
TTITLE7=Jak zeschla ziemia
TTITLE8=improwizacja
TTITLE9=Ponad
TTITLE10=Powrocmy dzis do Pana
TTITLE11=Jesli lud
TTITLE12=Ruch oporu-improwizacja
TTITLE13=Agnus Dei
TTITLE14=To jest rok nowych rzeczy-improwizacja
EXTD=YEAR: 2008
EXTT0=
EXTT1=
EXTT2=
EXTT3=
EXTT4=
EXTT5=
EXTT6=
EXTT7=
EXTT8=
EXTT9=
EXTT10=
EXTT11=
EXTT12=
EXTT13=
EXTT14=
PLAYORDER=
